<?xml version="1.0" encoding="UTF-8"?>
<svg version="1.1" xmlns="http://www.w3.org/2000/svg" width="2000" height="2000">
<path d="M0 0 C660 0 1320 0 2000 0 C2000 660 2000 1320 2000 2000 C1340 2000 680 2000 0 2000 C0 1340 0 680 0 0 Z " fill="#E3E1DC" transform="translate(0,0)"/>
<path d="M0 0 C3.65615705 0.01749724 7.31229146 0.0114128 10.96847868 0.0083909 C17.28211777 0.00630741 23.59558977 0.01871036 29.90918684 0.04134226 C39.03722591 0.07404134 48.16518531 0.08428744 57.29327659 0.08929422 C72.10788239 0.09801901 86.9223994 0.12455758 101.73695707 0.16250467 C116.11618444 0.19929806 130.49538745 0.22752788 144.87465239 0.24453592 C145.77206184 0.24560791 146.66947129 0.2466799 147.59407496 0.24778438 C154.61383889 0.25610351 161.63360334 0.2639307 168.653368 0.27160263 C202.97981515 0.30924375 237.30603969 0.38973883 271.63246489 0.46426249 C271.63246489 64.48426249 271.63246489 128.50426249 271.63246489 194.46426249 C249.52246489 194.46426249 227.41246489 194.46426249 204.63246489 194.46426249 C204.63246489 195.78426249 204.63246489 197.10426249 204.63246489 198.46426249 C205.35949614 198.62281717 206.08652739 198.78137186 206.83558989 198.94473124 C229.3377269 204.16638098 250.17351023 216.52040284 262.77308989 236.2503953 C268.16116605 244.94041748 272.29335439 253.44625391 274.63246489 263.46426249 C274.92894926 264.66051249 275.22543364 265.85676249 275.53090239 267.08926249 C281.13623179 292.59608253 277.16772735 319.83105725 263.75746489 342.33926249 C249.69958448 363.97500985 229.85277355 379.28039275 204.36546487 384.97036397 C197.16876451 386.41188488 190.28433789 386.74249468 182.95846891 386.70477152 C181.11289767 386.70733479 181.11289767 386.70733479 179.23004216 386.70994985 C175.84573641 386.71265735 172.46166619 386.70647274 169.07738912 386.69639373 C165.41633519 386.68770615 161.75528771 386.69068312 158.09422636 386.69219828 C151.76141807 386.69324379 145.4286512 386.6870022 139.09585333 386.6757226 C129.93984911 386.65942514 120.78386479 386.65425526 111.62784763 386.65174662 C96.77057005 386.64737616 81.9133145 386.63408472 67.05604887 386.61514139 C52.62896664 386.59676576 38.20189043 386.58264045 23.77479887 386.57412577 C22.87551344 386.57358977 21.976228 386.57305378 21.0496915 386.57250154 C14.01603328 386.56834237 6.98237493 386.56442863 -0.05128348 386.56059241 C-34.49005426 386.54174644 -68.92876982 386.50150477 -103.36753511 386.46426249 C-103.36753511 323.10426249 -103.36753511 259.74426249 -103.36753511 194.46426249 C-77.62753511 194.46426249 -51.88753511 194.46426249 -25.36753511 194.46426249 C-25.36753511 193.14426249 -25.36753511 191.82426249 -25.36753511 190.46426249 C-26.48128511 190.36242655 -27.59503511 190.26059061 -28.74253511 190.15566874 C-54.36650029 186.91889809 -78.76070522 171.81880248 -95.36753511 152.46426249 C-100.48833736 145.68037401 -104.1092469 138.28415421 -107.36753511 130.46426249 C-107.79679293 129.52066874 -107.79679293 129.52066874 -108.23472261 128.55801249 C-116.81400638 108.39227334 -115.34614087 83.99162158 -107.67222261 63.90176249 C-96.97675747 37.52740175 -76.58937892 17.68292891 -50.61753511 6.21426249 C-33.83279867 0.31818669 -17.65011156 -0.10623804 0 0 Z " fill="#1E1E1E" transform="translate(917.3675351142883,1013.5357375144958)"/>
<path d="M0 0 C0.8048584 0.34401855 1.6097168 0.68803711 2.43896484 1.04248047 C26.22434894 11.35156289 46.35718775 26.18004291 65 44 C65.67675781 44.63550781 66.35351562 45.27101563 67.05078125 45.92578125 C91.4195951 69.39827092 107.91462937 101.77133233 117 134 C117.30550781 135.06347656 117.61101562 136.12695312 117.92578125 137.22265625 C121.74875791 151.47549744 123.52755601 165.96273574 123.93261719 180.68701172 C123.9967386 182.88804899 124.0948454 185.08553564 124.1953125 187.28515625 C124.65387332 200.74862545 122.37007531 213.7860774 120 227 C119.86110352 227.825 119.72220703 228.65 119.57910156 229.5 C114.09499403 261.65110371 97.62446009 292.10453455 77 317 C74.20092329 315.72429396 72.16631168 314.4108322 70.01074219 312.22192383 C69.45626404 311.66406693 68.90178589 311.10621002 68.33050537 310.53144836 C67.74190735 309.92939072 67.15330933 309.32733307 66.546875 308.70703125 C65.61829681 307.77065071 65.61829681 307.77065071 64.67095947 306.81535339 C62.69248853 304.8191003 60.72081257 302.816312 58.75 300.8125 C56.16485901 298.19062919 53.57655229 295.57194584 50.984375 292.95703125 C50.36272461 292.32983688 49.74107422 291.70264252 49.10058594 291.05644226 C45.43631402 287.38025136 41.69934966 283.86054342 37.73535156 280.50610352 C34.49450556 277.69338841 31.51169153 274.6162001 28.5 271.5625 C27.86835937 270.92634766 27.23671875 270.29019531 26.5859375 269.63476562 C25.05494226 268.09217194 23.52712333 266.54642686 22 265 C20.91160226 265.88967344 19.82955392 266.78711574 18.75 267.6875 C18.14671875 268.18636719 17.5434375 268.68523437 16.921875 269.19921875 C14.6890576 271.2913505 12.86460342 273.57849069 11 276 C15.54960775 280.57514197 20.10327322 285.14621687 24.65966797 289.71459961 C26.20648501 291.26641888 27.75240007 292.81913781 29.29736328 294.37280273 C31.52915787 296.6168441 33.76426845 298.85753804 36 301.09765625 C36.68054443 301.78336197 37.36108887 302.46906769 38.06225586 303.17555237 C41.26901209 306.38267554 44.51205949 309.48703961 47.94921875 312.44702148 C52.45468072 316.33647233 56.62826346 320.52036408 60.8125 324.75 C62.03223511 325.97541504 62.03223511 325.97541504 63.27661133 327.22558594 C66.7217734 330.68695042 70.1609029 334.15428591 73.60058594 337.62109375 C76.12746508 340.16615188 78.65741315 342.70813131 81.1875 345.25 C81.95231689 346.02311523 82.71713379 346.79623047 83.50512695 347.59277344 C87.5860532 351.69205601 91.75700543 355.60179975 96.13989258 359.37588501 C98.94169217 361.82221938 101.60129102 364.40171153 104.25 367.01171875 C104.79358154 367.54722855 105.33716309 368.08273834 105.8972168 368.63447571 C107.02778895 369.75138046 108.15693575 370.86972981 109.28466797 371.98950195 C110.43815083 373.1313285 111.59612029 374.26863865 112.75830078 375.40161133 C114.45282158 377.05370985 116.1339238 378.71844124 117.8125 380.38671875 C118.59512207 381.14307869 118.59512207 381.14307869 119.39355469 381.91471863 C122.37426657 384.91380069 123 385.56996465 123 390 C94.5494045 390.09151316 66.09882772 390.16217362 37.6481135 390.20426132 C34.27908064 390.20926335 30.91004806 390.21444071 27.54101562 390.21972656 C26.53506653 390.22130043 26.53506653 390.22130043 25.50879523 390.22290608 C14.69082903 390.24024821 3.87294901 390.27175118 -6.94496629 390.30861118 C-18.06889595 390.34619399 -29.19279079 390.36797338 -40.31678224 390.37635398 C-46.55498069 390.3815435 -52.79298455 390.39363797 -59.0311203 390.42292023 C-64.91785848 390.45032581 -70.80432423 390.45839477 -76.69112015 390.45243073 C-78.83711102 390.45351982 -80.98311222 390.46132228 -83.12904739 390.4768219 C-96.91437471 390.57139987 -109.60105887 389.25999898 -123 386 C-123.83438709 385.80118618 -124.66877418 385.60237237 -125.52844572 385.39753389 C-177.35472944 373.00014846 -223.06826729 341.03579152 -251.48291016 295.63037109 C-258.84172889 283.53871183 -265.00565901 271.23797968 -270 258 C-270.30776367 257.21286621 -270.61552734 256.42573242 -270.93261719 255.61474609 C-279.82557195 232.62966396 -282.45363057 209.26217254 -282.5 184.8125 C-282.50458221 183.91642029 -282.50916443 183.02034058 -282.5138855 182.09710693 C-282.54810503 165.24524236 -280.58712576 148.98280673 -275.9375 132.75 C-275.64077393 131.7077124 -275.34404785 130.6654248 -275.03833008 129.59155273 C-259.41552827 76.93957256 -222.59028405 33.42136605 -174.57568359 7.36132812 C-158.96321611 -0.89034189 -143.0959078 -6.64044663 -126 -11 C-125.29907227 -11.18143555 -124.59814453 -11.36287109 -123.87597656 -11.54980469 C-83.26222167 -21.84654861 -38.13708841 -16.47431326 0 0 Z " fill="#1E1E1E" transform="translate(873,559)"/>
<path d="M0 0 C33.7425 -0.061875 67.485 -0.12375 102.25 -0.1875 C112.87477539 -0.21481201 123.49955078 -0.24212402 134.44628906 -0.27026367 C147.49560547 -0.28381348 147.49560547 -0.28381348 153.61907959 -0.28633118 C157.86408261 -0.2891079 162.10897123 -0.30027701 166.35394287 -0.31672668 C171.79195552 -0.33751584 177.22980513 -0.34343481 182.66785383 -0.33921683 C184.64905321 -0.34009703 186.6302591 -0.34591922 188.61142397 -0.35764539 C201.68949137 -0.43136941 214.12346012 0.73465077 227 3 C228.36506476 3.2264022 229.73033931 3.45154457 231.09585953 3.6751833 C277.24614192 11.46803245 320.76901036 41.58313716 348 79 C348.41314453 79.56348145 348.82628906 80.12696289 349.25195312 80.70751953 C380.31648696 123.62432994 390.65484208 175.38953163 382.64160156 227.32275391 C376.83298423 262.46267173 360.09593452 294.24606127 337 321 C336.16210938 321.9796875 335.32421875 322.959375 334.4609375 323.96875 C329.96222233 329.10130476 325.25653242 333.65874239 320 338 C318.89288013 338.95402219 317.78614483 339.90849074 316.6796875 340.86328125 C271.42289522 379.36480145 219.66355891 386.70410867 162.31963348 386.40512085 C157.15753781 386.38200839 151.99552213 386.38125061 146.83337402 386.37841797 C131.82636942 386.35759074 116.81942984 386.30174606 101.8125 386.25 C68.214375 386.1675 34.61625 386.085 0 386 C0 258.62 0 131.24 0 0 Z " fill="#1E1E1E" transform="translate(1021,558)"/>
</svg>
